REM DIRINDEX 1\2,1\3
REM DIRNAME folder01,folder02,folder03
TITLE ""
FILE "CD1Track24.mp3" MP3
  TRACK 01 AUDIO
    TITLE "0:"
    INDEX 01 00:00:00
  TRACK 02 AUDIO
    TITLE "2:cjc102_0975"
    INDEX 01 00:00:27
  TRACK 03 AUDIO
    TITLE "0:"
    INDEX 01 00:01:22
  TRACK 04 AUDIO
    TITLE "3:cjc102_0976"
    INDEX 01 00:01:71
  TRACK 05 AUDIO
    TITLE "0:"
    INDEX 01 00:03:35
  TRACK 06 AUDIO
    TITLE "3:cjc102_0977"
    INDEX 01 00:04:11
  TRACK 07 AUDIO
    TITLE "0:"
    INDEX 01 00:10:06
  TRACK 08 AUDIO
    TITLE "2:cjc102_0978"
    INDEX 01 00:10:10
  TRACK 09 AUDIO
    TITLE "0:"
    INDEX 01 00:11:17
  TRACK 10 AUDIO
    TITLE "3:cjc102_0979"
    INDEX 01 00:11:37
  TRACK 11 AUDIO
    TITLE "0:"
    INDEX 01 00:12:34
  TRACK 12 AUDIO
    TITLE "2:cjc102_0980"
    INDEX 01 00:12:40
  TRACK 13 AUDIO
    TITLE "0:"
    INDEX 01 00:13:51
  TRACK 14 AUDIO
    TITLE "3:cjc102_0981"
    INDEX 01 00:14:25
  TRACK 15 AUDIO
    TITLE "0:"
    INDEX 01 00:15:11
  TRACK 16 AUDIO
    TITLE "2:cjc102_0982"
    INDEX 01 00:15:34
  TRACK 17 AUDIO
    TITLE "0:"
    INDEX 01 00:16:48
  TRACK 18 AUDIO
    TITLE "3:cjc102_0983"
    INDEX 01 00:17:49
  TRACK 19 AUDIO
    TITLE "0:"
    INDEX 01 00:18:48
  TRACK 20 AUDIO
    TITLE "2:cjc102_0984"
    INDEX 01 00:18:50
  TRACK 21 AUDIO
    TITLE "0:"
    INDEX 01 00:19:71
  TRACK 22 AUDIO
    TITLE "3:cjc102_0985"
    INDEX 01 00:20:55
  TRACK 23 AUDIO
    TITLE "0:"
    INDEX 01 00:21:51
  TRACK 24 AUDIO
    TITLE "2:cjc102_0986"
    INDEX 01 00:21:70
  TRACK 25 AUDIO
    TITLE "0:"
    INDEX 01 00:23:03
  TRACK 26 AUDIO
    TITLE "3:cjc102_0987"
    INDEX 01 00:24:14
  TRACK 27 AUDIO
    TITLE "0:"
    INDEX 01 00:24:67
  TRACK 28 AUDIO
    TITLE "2:cjc102_0988"
    INDEX 01 00:25:05
  TRACK 29 AUDIO
    TITLE "0:"
    INDEX 01 00:26:20
  TRACK 30 AUDIO
    TITLE "3:cjc102_0989"
    INDEX 01 00:27:32
  TRACK 31 AUDIO
    TITLE "0:"
    INDEX 01 00:28:31
  TRACK 32 AUDIO
    TITLE "2:cjc102_0990"
    INDEX 01 00:28:57
  TRACK 33 AUDIO
    TITLE "0:"
    INDEX 01 00:29:72
  TRACK 34 AUDIO
    TITLE "3:cjc102_0991"
    INDEX 01 00:31:00
  TRACK 35 AUDIO
    TITLE "0:"
    INDEX 01 00:31:69
  TRACK 36 AUDIO
    TITLE "2:cjc102_0992"
    INDEX 01 00:32:39
  TRACK 37 AUDIO
    TITLE "0:"
    INDEX 01 00:33:46
  TRACK 38 AUDIO
    TITLE "3:cjc102_0993"
    INDEX 01 00:34:51
  TRACK 39 AUDIO
    TITLE "0:"
    INDEX 01 00:35:49
  TRACK 40 AUDIO
    TITLE "2:cjc102_0994"
    INDEX 01 00:35:72
  TRACK 41 AUDIO
    TITLE "0:"
    INDEX 01 00:37:05
  TRACK 42 AUDIO
    TITLE "3:cjc102_0995"
    INDEX 01 00:38:14
  TRACK 43 AUDIO
    TITLE "0:"
    INDEX 01 00:39:07
  TRACK 44 AUDIO
    TITLE "2:cjc102_0996"
    INDEX 01 00:39:29
  TRACK 45 AUDIO
    TITLE "0:"
    INDEX 01 00:40:36
  TRACK 46 AUDIO
    TITLE "3:cjc102_0997"
    INDEX 01 00:41:65
  TRACK 47 AUDIO
    TITLE "0:"
    INDEX 01 00:42:59
  TRACK 48 AUDIO
    TITLE "2:cjc102_0998"
    INDEX 01 00:43:07
  TRACK 49 AUDIO
    TITLE "0:"
    INDEX 01 00:44:20
  TRACK 50 AUDIO
    TITLE "3:cjc102_0999"
    INDEX 01 00:45:26
  TRACK 51 AUDIO
    TITLE "0:"
    INDEX 01 00:46:43
  TRACK 52 AUDIO
    TITLE "2:cjc102_1000"
    INDEX 01 00:46:51
  TRACK 53 AUDIO
    TITLE "0:"
    INDEX 01 00:47:50
  TRACK 54 AUDIO
    TITLE "3:cjc102_1001"
    INDEX 01 00:48:36
  TRACK 55 AUDIO
    TITLE "0:"
    INDEX 01 00:49:49
  TRACK 56 AUDIO
    TITLE "2:cjc102_1002"
    INDEX 01 00:49:67
  TRACK 57 AUDIO
    TITLE "0:"
    INDEX 01 00:50:68
  TRACK 58 AUDIO
    TITLE "3:cjc102_1003"
    INDEX 01 00:52:37
  TRACK 59 AUDIO
    TITLE "0:"
    INDEX 01 00:53:43
  TRACK 60 AUDIO
    TITLE "2:cjc102_1004"
    INDEX 01 00:53:51
  TRACK 61 AUDIO
    TITLE "0:"
    INDEX 01 00:54:48
  TRACK 62 AUDIO
    TITLE "3:cjc102_1005"
    INDEX 01 00:55:53
  TRACK 63 AUDIO
    TITLE "0:"
    INDEX 01 00:56:49
  TRACK 64 AUDIO
    TITLE "2:cjc102_1006"
    INDEX 01 00:56:51
  TRACK 65 AUDIO
    TITLE "0:"
    INDEX 01 00:57:62
  TRACK 66 AUDIO
    TITLE "3:cjc102_1007"
    INDEX 01 00:58:28
  TRACK 67 AUDIO
    TITLE "0:"
    INDEX 01 00:59:38
  TRACK 68 AUDIO
    TITLE "2:cjc102_1008"
    INDEX 01 00:59:45
  TRACK 69 AUDIO
    TITLE "0:"
    INDEX 01 01:00:47
  TRACK 70 AUDIO
    TITLE "3:cjc102_1009"
    INDEX 01 01:01:46
  TRACK 71 AUDIO
    TITLE "0:"
    INDEX 01 01:02:42
  TRACK 72 AUDIO
    TITLE "2:cjc102_1010"
    INDEX 01 01:02:44
  TRACK 73 AUDIO
    TITLE "0:"
    INDEX 01 01:03:37
  TRACK 74 AUDIO
    TITLE "3:cjc102_1011"
    INDEX 01 01:04:52
  TRACK 75 AUDIO
    TITLE "0:"
    INDEX 01 01:05:73
  TRACK 76 AUDIO
    TITLE "2:cjc102_1012"
    INDEX 01 01:06:00
  TRACK 77 AUDIO
    TITLE "0:"
    INDEX 01 01:06:73
  TRACK 78 AUDIO
    TITLE "2:cjc102_1013"
    INDEX 01 01:08:42
  TRACK 79 AUDIO
    TITLE "0:"
    INDEX 01 01:09:50
  TRACK 80 AUDIO
    TITLE "3:cjc102_1014"
    INDEX 01 01:10:35
  TRACK 81 AUDIO
    TITLE "0:"
    INDEX 01 01:11:52
  TRACK 82 AUDIO
    TITLE "2:cjc102_1015"
    INDEX 01 01:11:56
  TRACK 83 AUDIO
    TITLE "0:"
    INDEX 01 01:12:50
  TRACK 84 AUDIO
    TITLE "2:cjc102_1016"
    INDEX 01 01:13:18
  TRACK 85 AUDIO
    TITLE "0:"
    INDEX 01 01:14:23
  TRACK 86 AUDIO
    TITLE "3:cjc102_1017"
    INDEX 01 01:14:66
  TRACK 87 AUDIO
    TITLE "0:"
    INDEX 01 01:16:11
  TRACK 88 AUDIO
    TITLE "2:cjc102_1018"
    INDEX 01 01:16:16
  TRACK 89 AUDIO
    TITLE "0:"
    INDEX 01 01:17:04
  TRACK 90 AUDIO
    TITLE "2:cjc102_1019"
    INDEX 01 01:17:51
  TRACK 91 AUDIO
    TITLE "0:"
    INDEX 01 01:18:54
  TRACK 92 AUDIO
    TITLE "3:cjc102_1020"
    INDEX 01 01:19:42
  TRACK 93 AUDIO
    TITLE "0:"
    INDEX 01 01:20:53
  TRACK 94 AUDIO
    TITLE "2:cjc102_1021"
    INDEX 01 01:20:55
  TRACK 95 AUDIO
    TITLE "0:"
    INDEX 01 01:22:27
  TRACK 96 AUDIO
    TITLE "3:cjc102_1022"
    INDEX 01 01:22:58
  TRACK 97 AUDIO
    TITLE "0:"
    INDEX 01 01:23:71
  TRACK 98 AUDIO
    TITLE "2:cjc102_1023"
    INDEX 01 01:23:73
  TRACK 99 AUDIO
    TITLE "0:"
    INDEX 01 01:26:74
  TRACK 100 AUDIO
    TITLE "3:cjc102_1024"
    INDEX 01 01:27:59
  TRACK 101 AUDIO
    TITLE "0:"
    INDEX 01 01:29:07
  TRACK 102 AUDIO
    TITLE "2:cjc102_1025"
    INDEX 01 01:29:23
  TRACK 103 AUDIO
    TITLE "0:"
    INDEX 01 01:32:66
